<svg width="180" height="180" viewBox="0 0 180 180" fill="none" xmlns="http://www.w3.org/2000/svg">
<path d="M37.5 133.125V104.88L67.95 124.777C74.5063 129.061 82.1683 131.342 90 131.342C97.8317 131.342 105.494 129.061 112.05 124.777L142.5 104.88V133.125C142.5 134.342 142.105 135.526 141.375 136.5L141.368 136.507L141.36 136.522L141.338 136.552L141.27 136.627L141.18 136.747L141.083 136.875L140.438 137.632C139.681 138.491 138.888 139.317 138.06 140.107C135.983 142.11 132.885 144.712 128.685 147.292C120.278 152.467 107.543 157.5 90 157.5C72.4575 157.5 59.73 152.475 51.3075 147.292C47.9372 145.239 44.7946 142.833 41.9325 140.115C40.797 139.019 39.7277 137.857 38.73 136.635L38.6625 136.56L38.64 136.522V136.507C37.9053 135.532 37.5054 134.346 37.5 133.125ZM166.2 75.96L105.9 115.357C101.173 118.447 95.6475 120.093 90 120.093C84.3525 120.093 78.8274 118.447 74.1 115.357L22.5 81.645V121.875C22.5 123.367 21.9074 124.798 20.8525 125.852C19.7976 126.907 18.3668 127.5 16.875 127.5C15.3832 127.5 13.9524 126.907 12.8975 125.852C11.8426 124.798 11.25 123.367 11.25 121.875V75C11.25 74.34 11.3625 73.71 11.5725 73.125C11.1501 71.9295 11.144 70.6264 11.5551 69.427C11.9663 68.2277 12.7705 67.2024 13.8375 66.5175L74.3175 27.7425C78.998 24.7426 84.4407 23.1481 90 23.1481C95.5593 23.1481 101.002 24.7426 105.683 27.7425L166.163 66.5175C166.952 67.0246 167.603 67.7213 168.054 68.5442C168.506 69.3671 168.745 70.2899 168.748 71.2285C168.752 72.1672 168.521 73.0919 168.076 73.9183C167.631 74.7447 166.986 75.4466 166.2 75.96Z" fill="#FDBA27"/>
</svg>
