<svg width="180" height="180" viewBox="0 0 180 180" fill="none" xmlns="http://www.w3.org/2000/svg">
<path d="M60 90C67.9565 90 75.5871 86.8393 81.2132 81.2132C86.8393 75.5871 90 67.9565 90 60C90 52.0435 86.8393 44.4129 81.2132 38.7868C75.5871 33.1607 67.9565 30 60 30C52.0435 30 44.4129 33.1607 38.7868 38.7868C33.1607 44.4129 30 52.0435 30 60C30 67.9565 33.1607 75.5871 38.7868 81.2132C44.4129 86.8393 52.0435 90 60 90V90ZM127.5 90C133.467 90 139.19 87.6295 143.41 83.4099C147.629 79.1903 150 73.4674 150 67.5C150 61.5326 147.629 55.8097 143.41 51.5901C139.19 47.3705 133.467 45 127.5 45C121.533 45 115.81 47.3705 111.59 51.5901C107.371 55.8097 105 61.5326 105 67.5C105 73.4674 107.371 79.1903 111.59 83.4099C115.81 87.6295 121.533 90 127.5 90ZM33.75 105C23.4 105 15 113.4 15 123.75C15 123.75 15 157.5 60 157.5C95.67 157.5 103.065 136.29 104.595 127.5C105 125.205 105 123.75 105 123.75C105 113.4 96.6 105 86.25 105H33.75ZM119.94 129C119.767 131.719 119.315 134.413 118.59 137.04C117.645 140.385 116.085 144.39 113.46 148.515C118.063 149.546 122.769 150.044 127.485 150C164.985 150 164.985 123.75 164.985 123.75C164.985 113.4 156.585 105 146.235 105H114.3C117.9 110.37 119.985 116.805 119.985 123.75V127.5L119.94 129Z" fill="#FDBA27"/>
</svg>
