<svg width="418" height="424" viewBox="0 0 418 424" fill="none"
  xmlns="http://www.w3.org/2000/svg">
  <path d="M384.282 7.81833C386.732 10.3433 388.609 13.25 389.916 16.3555C391.14 19.4609 391.14 22.8562 391.875 26.4172V106C391.875 120.658 380.2 132.5 365.75 132.5C351.3 132.5 339.625 120.658 339.625 106V90.5141L253.576 177.716C243.942 187.57 228.512 188.15 218.144 179.123L142.953 114.364L69.2476 179.123C58.2996 188.647 41.8 187.322 32.4113 176.225C23.0227 165.128 24.2962 148.4 35.2443 138.877L126.706 59.3766C136.503 50.8717 150.872 50.8717 160.669 59.3766L233.737 122.894L302.642 53H287.375C272.925 53 261.25 41.133 261.25 26.5C261.25 11.867 272.925 0 287.375 0H365.015C372.934 0 379.466 2.94316 384.201 7.7057L384.282 7.81833ZM0 251.75C0 229.805 17.5446 212 39.1875 212H378.812C400.447 212 418 229.805 418 251.75V384.25C418 406.195 400.447 424 378.812 424H39.1875C17.5446 424 0 406.195 0 384.25V251.75ZM39.1875 384.25H78.375C78.375 362.305 60.8304 344.5 39.1875 344.5V384.25ZM39.1875 251.75V291.5C60.8304 291.5 78.375 273.695 78.375 251.75H39.1875ZM378.812 344.5C357.178 344.5 339.625 362.305 339.625 384.25H378.812V344.5ZM339.625 251.75C339.625 273.695 357.178 291.5 378.812 291.5V251.75H339.625ZM209 265C180.181 265 156.75 288.767 156.75 318C156.75 347.233 180.181 371 209 371C237.819 371 261.25 347.233 261.25 318C261.25 288.767 237.819 265 209 265Z" fill="black"/>
</svg>
  