<svg width="41" height="40" viewBox="0 0 41 40" fill="none"
  xmlns="http://www.w3.org/2000/svg">
  <g clip-path="url(#clip0_13_47)">
    <path fill-rule="evenodd" clip-rule="evenodd" d="M4.92441 19.1411C2.52742 19.1411 0.597717 21.1467 0.597717 23.638V31.1154C0.597717 33.1429 1.87579 34.8486 3.64366 35.4135C3.65848 34.3883 4.06052 33.4102 4.76301 32.6903C5.46551 31.9705 6.41215 31.5665 7.39868 31.5656C8.39555 31.5656 9.3516 31.9772 10.0565 32.7098C10.7614 33.4424 11.1574 34.4361 11.1574 35.4722C11.1553 35.519 11.1524 35.5657 11.1486 35.6124H19.0229C19.0161 35.5658 19.0102 35.519 19.0051 35.4722C19.0051 34.4361 19.4011 33.4424 20.106 32.7098C20.8109 31.9772 21.7669 31.5656 22.7638 31.5656C23.7583 31.5658 24.7122 31.9756 25.4166 32.7052C26.121 33.4348 26.5184 34.4248 26.5219 35.4584C28.3675 34.9445 29.7188 33.2001 29.7188 31.1154V23.638C29.7188 21.1467 27.7891 19.1411 25.3922 19.1411H4.92441Z" stroke="black" stroke-width="1.498"/>
    <path d="M7.41742 39.3788C9.49331 39.3788 11.1761 37.6297 11.1761 35.4722C11.1761 33.3147 9.49331 31.5657 7.41742 31.5657C5.34153 31.5657 3.65869 33.3147 3.65869 35.4722C3.65869 37.6297 5.34153 39.3788 7.41742 39.3788Z" stroke="black" stroke-width="1.498"/>
    <path d="M22.8138 39.3788C24.8897 39.3788 26.5725 37.6297 26.5725 35.4722C26.5725 33.3147 24.8897 31.5657 22.8138 31.5657C20.7379 31.5657 19.0551 33.3147 19.0551 35.4722C19.0551 37.6297 20.7379 39.3788 22.8138 39.3788Z" stroke="black" stroke-width="1.498"/>
    <path d="M31.3854 14.7972C30.8783 15.4383 30.5749 16.2531 30.5749 17.1429V32.7241C30.5749 34.7984 32.2205 36.4683 34.2644 36.4683H37.3415C38.1903 36.4683 38.9698 36.1797 39.5918 35.6944H34.3217C32.6937 35.6944 31.3832 34.3643 31.3832 32.7121V14.891C31.3832 14.8596 31.3845 14.8284 31.3854 14.7972H31.3854Z" stroke="black" stroke-width="1.17718"/>
    <path d="M12.2387 6.88422L20.4583 6.96274C22.4998 6.97272 22.9234 8.9104 23.3349 9.78707L26.087 16.0354C26.881 17.8379 26.5148 19.2631 26.5148 19.2631L10.9399 19.0344C9.45221 19.0126 9.66539 19.3383 9.67269 18.5046L9.75358 9.26196C9.76771 7.64786 10.536 6.86796 12.2387 6.88422V6.88422Z" stroke="black" stroke-width="1.498"/>
    <path d="M19.7739 14.6961C20.778 14.6961 21.5919 13.8502 21.5919 12.8066C21.5919 11.763 20.778 10.9171 19.7739 10.9171C18.7698 10.9171 17.9558 11.763 17.9558 12.8066C17.9558 13.8502 18.7698 14.6961 19.7739 14.6961Z" stroke="black" stroke-width="1.43567"/>
    <path d="M13.7907 14.7321C14.7947 14.7321 15.6087 13.8861 15.6087 12.8425C15.6087 11.799 14.7947 10.953 13.7907 10.953C12.7866 10.953 11.9726 11.799 11.9726 12.8425C11.9726 13.8861 12.7866 14.7321 13.7907 14.7321Z" stroke="black" stroke-width="1.43567"/>
    <path d="M12.0485 21.5269C13.62 23.6508 21.6375 23.762 23.275 21.6273" stroke="black" stroke-width="1.498" stroke-linecap="round"/>
    <path d="M16.2019 3.207C17.054 3.207 17.7447 2.48909 17.7447 1.6035C17.7447 0.717911 17.054 0 16.2019 0C15.3498 0 14.6591 0.717911 14.6591 1.6035C14.6591 2.48909 15.3498 3.207 16.2019 3.207Z" fill="black"/>
    <path d="M16.1938 1.54974L16.1897 7.27786" stroke="black" stroke-width="1.52796"/>
    <path d="M13.7907 14.7321C14.7947 14.7321 15.6087 13.8861 15.6087 12.8425C15.6087 11.799 14.7947 10.953 13.7907 10.953C12.7866 10.953 11.9726 11.799 11.9726 12.8425C11.9726 13.8861 12.7866 14.7321 13.7907 14.7321Z" stroke="black" stroke-width="1.43567"/>
  </g>
  <defs>
    <clipPath id="clip0_13_47">
      <rect width="41" height="40" fill="white"/>
    </clipPath>
  </defs>
</svg>
  